<svg width="25" height="23" viewBox="0 0 25 23" fill="none" xmlns="http://www.w3.org/2000/svg">
<path d="M5.10699 20.7599L6.96961 19.2467L6.9833 19.236C7.37162 18.9206 7.56757 18.7614 7.78619 18.6479C7.98232 18.5462 8.19147 18.4721 8.40723 18.4271C8.65041 18.3764 8.90373 18.3764 9.41222 18.3764H20.0224C21.3887 18.3764 22.0727 18.3764 22.595 18.1061C23.055 17.8681 23.4292 17.488 23.6635 17.0209C23.9297 16.4904 23.9297 15.7966 23.9297 14.4091V4.96792C23.9297 3.58039 23.9297 2.88559 23.6635 2.35511C23.4292 1.88803 23.0542 1.50855 22.5943 1.27056C22.0714 1 21.3878 1 20.0188 1H5.84104C4.47202 1 3.787 1 3.26411 1.27056C2.80415 1.50855 2.43047 1.88803 2.19612 2.35511C1.92969 2.88611 1.92969 3.58175 1.92969 4.972V19.2095C1.92969 20.5322 1.92969 21.1935 2.19669 21.5331C2.4289 21.8285 2.78089 22.0004 3.1531 22C3.58109 21.9995 4.08989 21.5862 5.10699 20.7599Z" stroke="#296968" stroke-width="2" stroke-linecap="round" stroke-linejoin="round"/>
</svg>
