<svg width="22" height="22" viewBox="0 0 22 22" fill="none" xmlns="http://www.w3.org/2000/svg">
<g clip-path="url(#clip0_493_1177)">
<path d="M11 0C4.9347 0 0 4.9347 0 11C0 17.0653 4.9347 22 11 22C17.0653 22 22 17.0653 22 11C22 4.9347 17.0653 0 11 0ZM11 20.1667C5.94537 20.1667 1.83335 16.0546 1.83335 11C1.83335 5.94537 5.94537 1.83335 11 1.83335C16.0546 1.83335 20.1667 5.94537 20.1667 11C20.1667 16.0546 16.0546 20.1667 11 20.1667Z" fill="#296968"/>
<path d="M16.3054 5.08064L8.96266 8.7567C8.87401 8.801 8.80196 8.87306 8.75766 8.96171L5.08159 16.3044C4.99342 16.4808 5.02788 16.6938 5.16753 16.8335C5.2557 16.9217 5.37296 16.9678 5.4916 16.9678C5.56142 16.9678 5.63168 16.9521 5.6966 16.9194L13.0393 13.2434C13.128 13.1991 13.2 13.127 13.2443 13.0384L16.9204 5.69565C17.0086 5.51931 16.9741 5.30623 16.8344 5.16658C16.6952 5.02693 16.4808 4.9929 16.3054 5.08064ZM11.001 11.9167C10.4957 11.9167 10.0843 11.5053 10.0843 11C10.0843 10.4947 10.4957 10.0834 11.001 10.0834C11.5063 10.0834 11.9176 10.4947 11.9176 11C11.9176 11.5053 11.5063 11.9167 11.001 11.9167Z" fill="#296968"/>
</g>
<defs>
<clipPath id="clip0_493_1177">
<rect width="22" height="22" fill="white"/>
</clipPath>
</defs>
</svg>
