<svg width="21" height="18" viewBox="0 0 21 18" fill="none" xmlns="http://www.w3.org/2000/svg">
<path d="M0.625 5.04492C0.625 4.07566 1.41356 3.28711 2.38281 3.28711H5.50781V2.02629C5.50781 1.00914 6.33531 0.181641 7.35242 0.181641H13.8975C14.9147 0.181641 15.7422 1.00914 15.7422 2.02629V3.28711H18.8672C19.8364 3.28711 20.625 4.07566 20.625 5.04492V7.81824C20.625 8.33504 20.4567 8.97953 19.8438 9.61172V16.0605C19.8438 17.0298 19.0552 17.8184 18.0859 17.8184H3.16406C2.19481 17.8184 1.40625 17.0298 1.40625 16.0605V9.61172C0.793554 8.97988 0.625 8.33559 0.625 7.81824V5.04492ZM14.5703 2.02629C14.5703 1.65531 14.2685 1.35352 13.8975 1.35352H7.35238C6.98145 1.35352 6.67965 1.65531 6.67965 2.02629V3.28711H14.5703V2.02629ZM19.4531 5.04492C19.4531 4.72184 19.1903 4.45898 18.8672 4.45898H2.38281C2.05973 4.45898 1.79688 4.72184 1.79688 5.04492V7.81824C1.79688 9.25996 4.56281 10.4365 8.59375 10.7447V10.2012C8.59375 9.87758 8.85609 9.61523 9.17969 9.61523H12.0703C12.3939 9.61523 12.6562 9.87758 12.6562 10.2012V10.7445C16.6836 10.4359 19.4531 9.25629 19.4531 7.81824V5.04492ZM9.76562 10.7871V11.5488C9.76562 11.9688 10.1073 12.3105 10.5273 12.3105H10.7227C11.1427 12.3105 11.4844 11.9688 11.4844 11.5488V10.7871H9.76562ZM3.16406 16.6465H18.0859C18.409 16.6465 18.6719 16.3836 18.6719 16.0605V10.4717C16.9272 11.3657 15.0937 11.7104 12.6197 11.9224C12.4451 12.8104 11.661 13.4824 10.7227 13.4824H10.5273C9.58891 13.4824 8.80477 12.8103 8.63027 11.9222C6.58664 11.7742 4.74176 11.3991 3.39469 10.854C3.09176 10.7314 2.82078 10.6034 2.57812 10.4716V16.0605C2.57812 16.3836 2.84098 16.6465 3.16406 16.6465Z" fill="#296968"/>
</svg>
