<svg width="21" height="20" viewBox="0 0 21 20" fill="none" xmlns="http://www.w3.org/2000/svg">
<path d="M17.1487 16.2424C15.4812 17.9098 13.2643 18.8281 10.9062 18.8281C8.46371 18.8281 6.14961 17.8238 4.48324 16.0566C4.6648 15.7622 4.76984 15.4159 4.76984 15.0454C4.76984 13.9802 3.90324 13.1136 2.83805 13.1136C1.77285 13.1136 0.90625 13.9802 0.90625 15.0454C0.90625 16.1106 1.77285 16.9772 2.83809 16.9772C3.1068 16.9772 3.36281 16.922 3.59555 16.8223C5.48547 18.8477 8.12191 20 10.9062 20C13.5773 20 16.0886 18.9598 17.9773 17.0711C19.8661 15.1823 20.9062 12.6711 20.9062 10H19.7344C19.7344 12.3581 18.8161 14.575 17.1487 16.2424ZM2.07812 15.0454C2.07812 14.6264 2.41902 14.2855 2.83809 14.2855C3.25711 14.2855 3.59801 14.6264 3.59801 15.0454C3.59801 15.4645 3.25711 15.8054 2.83809 15.8054C2.41902 15.8054 2.07812 15.4645 2.07812 15.0454Z" fill="#296968"/>
<path d="M4.66383 3.75758C6.33125 2.09016 8.54816 1.17188 10.9062 1.17188C13.316 1.17188 15.6098 2.15445 17.2715 3.88305C17.1256 4.15465 17.0427 4.4648 17.0427 4.7941C17.0427 5.85934 17.9093 6.72594 18.9745 6.72594C20.0396 6.72594 20.9062 5.8593 20.9062 4.7941C20.9062 3.72891 20.0396 2.8623 18.9745 2.8623C18.6646 2.8623 18.3718 2.93605 18.112 3.06625C16.2302 1.11117 13.6338 0 10.9062 0C8.23516 0 5.72395 1.04016 3.83516 2.92891C1.94637 4.81766 0.90625 7.32891 0.90625 10H2.07812C2.07812 7.64191 2.99641 5.42496 4.66383 3.75758ZM19.7344 4.7941C19.7344 5.21316 19.3935 5.55406 18.9745 5.55406C18.5554 5.55406 18.2145 5.21316 18.2145 4.7941C18.2145 4.37508 18.5554 4.03418 18.9745 4.03418C19.3935 4.03418 19.7344 4.37504 19.7344 4.7941Z" fill="#296968"/>
<path d="M6.20312 7.2848V12.7152L10.906 15.4304L15.6089 12.7152V7.2848L10.906 4.56956L6.20312 7.2848ZM13.8511 7.62308L10.906 9.32343L7.96094 7.62308L10.906 5.92273L13.8511 7.62308ZM7.375 8.63792L10.3201 10.3383V13.739L7.375 12.0386V8.63792ZM11.492 13.739V10.3383L14.437 8.63792V12.0386L11.492 13.739Z" fill="#296968"/>
</svg>
