<svg width="19" height="22" viewBox="0 0 19 22" fill="none" xmlns="http://www.w3.org/2000/svg">
<rect width="17.9069" height="22" transform="translate(0.300781)" fill="white"/>
<path fill-rule="evenodd" clip-rule="evenodd" d="M18.2077 1.79069V21.2324C18.2077 21.5169 18.0501 21.7778 17.7984 21.9108C17.5467 22.0438 17.2428 22.0265 17.0074 21.8658L14.4544 20.1232L12.0405 21.8556C11.7509 22.0643 11.356 22.0449 11.0879 21.8095L9.25421 20.2061L7.42055 21.8095C7.15246 22.0449 6.75748 22.0643 6.46792 21.8556L4.05406 20.1232L1.50107 21.8658C1.26573 22.0264 0.96184 22.0438 0.710081 21.9108C0.458362 21.7778 0.300781 21.5168 0.300781 21.2324V1.79069C0.300821 0.802227 1.10201 0 2.09151 0H16.417C17.4065 0 18.2077 0.802227 18.2077 1.79069ZM16.6728 1.79069C16.6728 1.64948 16.5582 1.53487 16.417 1.53487H2.09151C1.9503 1.53487 1.83569 1.64948 1.83569 1.79069V19.7794L3.63252 18.5525C3.89856 18.3704 4.25056 18.3745 4.51251 18.5628L6.86803 20.2542L8.74876 18.6088C9.03832 18.355 9.47017 18.355 9.75973 18.6088L11.6405 20.2542L13.996 18.5628C14.2579 18.3745 14.6099 18.3704 14.876 18.5525L16.6728 19.7794V1.79069Z" fill="#296968"/>
<path fill-rule="evenodd" clip-rule="evenodd" d="M5.16197 5.62783C4.73834 5.62783 4.39453 5.28402 4.39453 4.86039C4.39453 4.43677 4.73834 4.09296 5.16197 4.09296H13.348C13.7716 4.09296 14.1154 4.43677 14.1154 4.86039C14.1154 5.28402 13.7716 5.62783 13.348 5.62783H5.16197Z" fill="#296968"/>
<path fill-rule="evenodd" clip-rule="evenodd" d="M5.16197 9.72088C4.73834 9.72088 4.39453 9.37707 4.39453 8.95344C4.39453 8.52982 4.73834 8.186 5.16197 8.186H13.348C13.7716 8.186 14.1154 8.52982 14.1154 8.95344C14.1154 9.37707 13.7716 9.72088 13.348 9.72088H5.16197Z" fill="#296968"/>
<path fill-rule="evenodd" clip-rule="evenodd" d="M5.16197 13.8138C4.73834 13.8138 4.39453 13.47 4.39453 13.0464C4.39453 12.6228 4.73834 12.279 5.16197 12.279H9.25496C9.67859 12.279 10.0224 12.6228 10.0224 13.0464C10.0224 13.47 9.67859 13.8138 9.25496 13.8138H5.16197Z" fill="#296968"/>
</svg>
