<svg width="20" height="20" viewBox="0 0 20 20" fill="none" xmlns="http://www.w3.org/2000/svg">
<g clip-path="url(#clip0_473_2452)">
<path d="M17.8125 5.625H16.5437L14.6063 3.3C13.85 2.39375 12.7437 1.875 11.5625 1.875C10.3813 1.875 9.275 2.39375 8.51875 3.3L6.58125 5.625H5V2.5C5 1.46875 4.15625 0.625 3.125 0.625H1.25C0.90625 0.625 0.625 0.90625 0.625 1.25C0.625 1.59375 0.90625 1.875 1.25 1.875H3.125C3.46875 1.875 3.75 2.15625 3.75 2.5V13.125C3.75 14.1562 4.59375 15 5.625 15H5.825L6.6875 17.15C6.925 17.7437 7.4875 18.125 8.125 18.125C8.7625 18.125 9.325 17.7437 9.5625 17.15L10.425 15H11.3062C11.2688 15.2063 11.25 15.4125 11.25 15.625C11.25 17.6938 12.9312 19.375 15 19.375C17.0688 19.375 18.75 17.6938 18.75 15.625C18.75 14.2688 18.0188 13.075 16.9375 12.4188L17.9562 9.3625C18.75 9.2875 19.375 8.625 19.375 7.8125V7.1875C19.375 6.325 18.675 5.625 17.8125 5.625ZM9.48125 4.1C10 3.48125 10.7563 3.125 11.5625 3.125C12.3687 3.125 13.1313 3.48125 13.6438 4.1L14.9125 5.625H8.20625L9.475 4.1H9.48125ZM8.40625 16.6875C8.3125 16.9188 7.94375 16.9125 7.85 16.6875L7.175 15H9.08125L8.40625 16.6875ZM15.0063 18.125C13.625 18.125 12.5063 17.0063 12.5063 15.625C12.5063 14.2437 13.625 13.125 15.0063 13.125C16.3875 13.125 17.5063 14.2437 17.5063 15.625C17.5063 17.0063 16.3875 18.125 15.0063 18.125ZM15.0063 11.875C13.6188 11.875 12.4125 12.6313 11.7625 13.75H5.63125C5.2875 13.75 5.00625 13.4688 5.00625 13.125V9.375H16.6375L15.775 11.9562C15.525 11.9062 15.2688 11.875 15 11.875H15.0063ZM18.1313 7.8125C18.1313 7.9875 17.9937 8.125 17.8188 8.125H5V6.875H17.8125C17.9875 6.875 18.125 7.0125 18.125 7.1875V7.8125H18.1313Z" fill="#296968"/>
<path d="M15.3125 15H14.6875C14.3438 15 14.0625 15.2812 14.0625 15.625C14.0625 15.9688 14.3438 16.25 14.6875 16.25H15.3125C15.6562 16.25 15.9375 15.9688 15.9375 15.625C15.9375 15.2812 15.6562 15 15.3125 15Z" fill="#296968"/>
<path d="M6.5625 10H6.25C5.90625 10 5.625 10.2812 5.625 10.625C5.625 10.9688 5.90625 11.25 6.25 11.25H6.5625C6.90625 11.25 7.1875 10.9688 7.1875 10.625C7.1875 10.2812 6.90625 10 6.5625 10Z" fill="#296968"/>
<path d="M9.0625 10H8.75C8.40625 10 8.125 10.2812 8.125 10.625C8.125 10.9688 8.40625 11.25 8.75 11.25H9.0625C9.40625 11.25 9.6875 10.9688 9.6875 10.625C9.6875 10.2812 9.40625 10 9.0625 10Z" fill="#296968"/>
</g>
<defs>
<clipPath id="clip0_473_2452">
<rect width="20" height="20" fill="white"/>
</clipPath>
</defs>
</svg>
