<svg width="21" height="20" viewBox="0 0 21 20" fill="none" xmlns="http://www.w3.org/2000/svg">
<path d="M12.5947 17.0264H4.65771C4.33301 17.0264 4.06934 16.7627 4.06934 16.438V3.08868C4.06934 2.76398 4.33301 2.5 4.65771 2.5H15.58C15.9047 2.5 16.1683 2.76398 16.1683 3.08868V14.3567C16.1683 14.5024 16.226 14.6304 16.3094 14.7366C16.4238 14.8822 16.5936 14.9817 16.7933 14.9817C17.1388 14.9817 17.4183 14.7021 17.4183 14.3567V3.08868C17.4183 2.07489 16.5938 1.25 15.58 1.25H4.65771C3.64392 1.25 2.81934 2.07489 2.81934 3.08868V16.438C2.81934 17.4518 3.64392 18.2764 4.65771 18.2764H12.5947C12.9402 18.2764 13.2197 17.9968 13.2197 17.6514C13.2197 17.5057 13.1621 17.3778 13.0787 17.2716C12.9644 17.1259 12.7945 17.0264 12.5947 17.0264Z" fill="#296968"/>
<path d="M13.9026 9.13818H6.62109C6.27563 9.13818 5.99609 9.41803 5.99609 9.76318C5.99609 10.1083 6.27563 10.3882 6.62109 10.3882H13.9026C14.248 10.3882 14.5276 10.1083 14.5276 9.76318C14.5276 9.41803 14.248 9.13818 13.9026 9.13818Z" fill="#296968"/>
<path d="M6.62109 6.74744H10.2618C10.6073 6.74744 10.8868 6.46759 10.8868 6.12244C10.8868 5.77728 10.6073 5.49744 10.2618 5.49744H6.62109C6.27563 5.49744 5.99609 5.77728 5.99609 6.12244C5.99609 6.46759 6.27563 6.74744 6.62109 6.74744Z" fill="#296968"/>
<path d="M13.9026 12.7789H6.62109C6.27563 12.7789 5.99609 13.0585 5.99609 13.4039C5.99609 13.7494 6.27563 14.0289 6.62109 14.0289H13.9026C14.248 14.0289 14.5276 13.7494 14.5276 13.4039C14.5276 13.0585 14.248 12.7789 13.9026 12.7789Z" fill="#296968"/>
<path d="M13.9518 16.4539C13.8462 16.5594 13.7953 16.6946 13.7811 16.8323C13.7624 17.013 13.8133 17.1991 13.9518 17.3376L15.1811 18.5669C15.3031 18.689 15.463 18.75 15.623 18.75C15.7829 18.75 15.9428 18.689 16.0649 18.5669L18.2255 16.4062C18.4696 16.1621 18.4696 15.7666 18.2255 15.5225C17.9814 15.2783 17.5858 15.2783 17.3417 15.5225L15.623 17.2412L14.8356 16.4539C14.735 16.3532 14.6071 16.3045 14.4763 16.2868C14.2896 16.2616 14.0953 16.3103 13.9518 16.4539Z" fill="#296968"/>
</svg>
