<svg width="25" height="20" viewBox="0 0 25 20" fill="none" xmlns="http://www.w3.org/2000/svg">
<path d="M12.5794 4.48444C15.9663 4.48444 18.7217 7.23929 18.7217 10.6254C18.7199 12.2539 18.0721 13.8152 16.9206 14.9667C15.7691 16.1182 14.2079 16.7659 12.5794 16.7678C9.19325 16.7678 6.43845 14.0123 6.43845 10.6254C6.44109 9.0761 7.02698 7.58456 8.07954 6.44764L7.44434 4.07792C7.40683 3.93802 7.41166 3.79013 7.45821 3.65297C7.50477 3.51581 7.59096 3.39554 7.70589 3.30738C7.82081 3.21922 7.9593 3.16712 8.10384 3.15768C8.24837 3.14824 8.39246 3.18188 8.51788 3.25435L11.0022 4.68984C11.5168 4.55317 12.047 4.48412 12.5794 4.48444ZM10.5416 6.11478L9.31685 5.407L9.60328 6.47551C9.63771 6.60396 9.63651 6.73936 9.59981 6.86718C9.56311 6.995 9.49228 7.11041 9.39495 7.20102C8.92216 7.63692 8.54533 8.1665 8.28843 8.75603C8.03154 9.34556 7.90022 9.98213 7.90284 10.6252C7.90318 11.6124 8.216 12.5741 8.79646 13.3725C9.37692 14.171 10.1952 14.7652 11.1341 15.0701C12.073 15.3749 13.0843 15.3748 14.0232 15.0696C14.962 14.7644 15.7801 14.1699 16.3603 13.3712C16.9404 12.5726 17.2529 11.6108 17.2529 10.6236C17.253 9.63645 16.9405 8.67462 16.3603 7.87594C15.7802 7.07727 14.9621 6.48273 14.0233 6.17754C13.0845 5.87234 12.0732 5.87214 11.1342 6.17697C11.0366 6.20875 10.9334 6.21965 10.8313 6.20897C10.7292 6.19828 10.6305 6.16624 10.5416 6.11493V6.11478ZM24.6759 10.1025C24.6839 10.4021 24.6921 10.7119 24.6778 11.0345C24.6392 11.9357 24.2523 12.7867 23.5988 13.4084C22.9452 14.03 22.0759 14.3738 21.1739 14.3674C19.7263 17.6794 16.419 20 12.5794 20C8.73983 20 5.43388 17.6794 3.98619 14.3674C3.08441 14.3738 2.21532 14.0302 1.56182 13.4087C0.908321 12.7873 0.521385 11.9366 0.482448 11.0356C0.468097 10.7119 0.476346 10.402 0.484303 10.1024C0.492747 9.78576 0.501436 9.45837 0.485181 9.09047C0.446421 8.16813 0.775006 7.26806 1.39888 6.58764C2.02276 5.90721 2.89101 5.50195 3.81324 5.46074C3.86785 5.4582 3.92234 5.45693 3.97672 5.45693C4.43638 5.45666 4.89143 5.54861 5.31492 5.72736C5.49187 5.80148 5.63257 5.94221 5.70667 6.11917C5.78076 6.29612 5.78232 6.49511 5.71099 6.6732C5.70213 6.70776 5.6886 6.74095 5.67077 6.77185C5.01477 7.9503 4.67049 9.27671 4.67054 10.6254C4.67054 14.9871 8.21846 18.5356 12.5794 18.5356C16.9403 18.5356 20.4896 14.9869 20.4896 10.6254C20.4948 8.77923 19.8519 6.98976 18.673 5.5689C17.4942 4.14805 15.8541 3.18591 14.0387 2.85018C13.8474 3.28301 13.511 3.63544 13.0875 3.84652C12.6639 4.05761 12.18 4.1141 11.7193 4.00623C11.2585 3.89836 10.8499 3.6329 10.5641 3.25574C10.2784 2.87859 10.1333 2.41344 10.1541 1.94069C10.1749 1.46795 10.3602 1.01732 10.678 0.666695C10.9957 0.316074 11.426 0.0874958 11.8945 0.0204697C12.3629 -0.0465565 12.84 0.0521832 13.2434 0.299622C13.6467 0.547058 13.951 0.927643 14.1035 1.37559C15.3931 1.58891 16.624 2.06914 17.7173 2.78555C18.8107 3.50195 19.7424 4.43875 20.4528 5.53596C20.6926 5.48356 20.9372 5.45705 21.1826 5.45689C21.2364 5.45689 21.2904 5.45812 21.3444 5.4606C21.8015 5.48027 22.2503 5.5898 22.6651 5.78293C23.0798 5.97605 23.4525 6.24899 23.7618 6.58615C24.071 6.92332 24.3109 7.31811 24.4676 7.74797C24.6242 8.17783 24.6947 8.63434 24.6749 9.09144C24.6587 9.45817 24.6675 9.78586 24.6759 10.1025ZM3.87836 6.92366C3.34375 6.94726 2.84032 7.18192 2.47848 7.57618C2.11664 7.97043 1.92592 8.4921 1.94815 9.02677C1.96665 9.44553 1.95684 9.81514 1.94815 10.1413C1.94054 10.4281 1.93351 10.6989 1.94547 10.9718C1.96437 11.4066 2.12317 11.8237 2.39823 12.161C2.67329 12.4983 3.04991 12.7378 3.47204 12.8438C3.01052 10.9462 3.15214 8.95198 3.87719 7.13868L3.87631 7.13834C3.90482 7.06571 3.93425 6.99342 3.96461 6.92147C3.93607 6.9216 3.90732 6.92233 3.87836 6.92366ZM12.1823 1.46438C12.0704 1.46437 11.9611 1.49754 11.868 1.55968C11.775 1.62183 11.7025 1.71016 11.6597 1.81351C11.6168 1.91687 11.6056 2.0306 11.6274 2.14033C11.6492 2.25006 11.7031 2.35087 11.7822 2.42999C11.8613 2.50912 11.962 2.56301 12.0718 2.58487C12.1815 2.60672 12.2952 2.59555 12.3986 2.55277C12.502 2.50998 12.5903 2.4375 12.6525 2.3445C12.7147 2.2515 12.7479 2.14215 12.748 2.03027V2.0292C12.7476 1.87937 12.6878 1.7358 12.5818 1.62993C12.4758 1.52407 12.3321 1.46453 12.1823 1.46438ZM23.212 9.02779C23.2234 8.7627 23.1824 8.49796 23.0915 8.24871C23.0005 7.99945 22.8613 7.77057 22.6818 7.57515C22.5023 7.37972 22.2861 7.22159 22.0455 7.10979C21.8048 6.99798 21.5445 6.93471 21.2794 6.92357C21.2513 6.92223 21.2233 6.92152 21.1953 6.92142C21.1965 6.92414 21.1967 6.92721 21.1958 6.93006C21.9952 8.79616 22.1679 10.8711 21.6881 12.8437C22.1104 12.7377 22.4872 12.4981 22.7623 12.1606C23.0374 11.8231 23.1961 11.4058 23.2148 10.9707C23.2268 10.6989 23.2196 10.4281 23.212 10.1414C23.2033 9.81524 23.1935 9.44558 23.212 9.02779ZM10.8687 10.6972C10.8711 10.6733 10.8722 10.6494 10.8721 10.6254C10.8722 10.6013 10.8711 10.5772 10.8687 10.5532C10.8663 10.5298 10.8624 10.5058 10.858 10.4824C10.8536 10.459 10.8472 10.4356 10.8404 10.4126C10.8336 10.3897 10.8253 10.3672 10.816 10.3453C10.8067 10.3233 10.7965 10.3013 10.7852 10.2803C10.774 10.2593 10.7618 10.2388 10.7486 10.2188C10.7356 10.1988 10.7214 10.1796 10.7062 10.1612C10.691 10.1422 10.6744 10.1246 10.6578 10.1075C10.6408 10.0905 10.6228 10.0744 10.6041 10.0592C10.5856 10.0441 10.5661 10.0299 10.5465 10.0163C10.5265 10.0036 10.506 9.99087 10.4845 9.97964C10.4636 9.96838 10.4421 9.95827 10.4201 9.94938C10.3981 9.94009 10.3756 9.93195 10.3528 9.92497C10.3298 9.91814 10.3064 9.91228 10.283 9.9074C10.2596 9.90263 10.2359 9.89904 10.2122 9.89666C10.1641 9.8921 10.1157 9.8921 10.0677 9.89666C10.0439 9.89904 10.0203 9.90263 9.99691 9.9074C9.97348 9.91228 9.95005 9.91814 9.92711 9.92497C9.90425 9.93195 9.88176 9.94009 9.85974 9.94938C9.83773 9.95827 9.81621 9.96838 9.79531 9.97964C9.77383 9.99087 9.75333 10.0036 9.73332 10.0163C9.71379 10.0299 9.69427 10.0441 9.67572 10.0592C9.65702 10.0744 9.6391 10.0905 9.62203 10.1075C9.60543 10.1246 9.58883 10.1422 9.5737 10.1612C9.55846 10.1796 9.54428 10.1988 9.53123 10.2188C9.51822 10.2388 9.50601 10.2593 9.49462 10.2803C9.4834 10.3013 9.47315 10.3233 9.46387 10.3453C9.4546 10.3672 9.44679 10.3897 9.43947 10.4126C9.43214 10.4356 9.42677 10.459 9.42189 10.4824C9.41701 10.5058 9.41359 10.5293 9.41115 10.5532C9.40871 10.5771 9.40774 10.6015 9.40774 10.6254C9.40774 10.6494 9.4092 10.6733 9.41115 10.6972C9.41311 10.7211 9.4175 10.745 9.42189 10.7685C9.42629 10.7919 9.43263 10.8148 9.43947 10.8378C9.4463 10.8607 9.4546 10.8832 9.46387 10.9051C9.47315 10.9271 9.4834 10.9491 9.49462 10.9701C9.51716 11.0123 9.54364 11.0524 9.5737 11.0896C9.58883 11.1082 9.60543 11.1263 9.62203 11.1429C9.6391 11.1599 9.65702 11.176 9.67572 11.1912C9.69427 11.2063 9.71379 11.221 9.73332 11.2341C9.75335 11.2474 9.77404 11.2596 9.79531 11.2707C9.8163 11.282 9.83778 11.2922 9.85974 11.3015C9.88171 11.3103 9.90465 11.3186 9.92711 11.3254C9.95005 11.3325 9.97335 11.3383 9.99691 11.343C10.0913 11.3622 10.1886 11.3622 10.283 11.343C10.3065 11.3383 10.3298 11.3325 10.3528 11.3254C10.3752 11.3186 10.3982 11.3103 10.4201 11.3015C10.4421 11.2927 10.4636 11.282 10.4845 11.2707C10.5058 11.2596 10.5265 11.2474 10.5465 11.2341C10.5661 11.221 10.5856 11.2063 10.6041 11.1912C10.6228 11.176 10.6408 11.1599 10.6578 11.1429C10.6744 11.1263 10.691 11.1082 10.7062 11.0896C10.7362 11.0524 10.7627 11.0123 10.7852 10.9701C10.7965 10.9491 10.8067 10.9271 10.816 10.9051C10.8253 10.8832 10.8331 10.8607 10.8404 10.8378C10.8477 10.8148 10.8531 10.7914 10.858 10.7685C10.8628 10.7455 10.8663 10.7213 10.8687 10.6974V10.6972ZM11.8479 10.6254C11.8478 10.7216 11.8667 10.8167 11.9034 10.9056C11.9401 10.9944 11.994 11.0751 12.0619 11.1431C12.1299 11.2111 12.2105 11.265 12.2993 11.3019C12.3881 11.3387 12.4833 11.3576 12.5794 11.3576H12.5808C12.7256 11.3575 12.8671 11.3144 12.9874 11.2339C13.1077 11.1534 13.2014 11.039 13.2567 10.9052C13.3121 10.7714 13.3265 10.6242 13.2981 10.4822C13.2698 10.3402 13.2 10.2098 13.0976 10.1075C12.9952 10.0051 12.8647 9.93546 12.7227 9.90726C12.5807 9.87907 12.4335 9.89361 12.2997 9.94904C12.166 10.0045 12.0517 10.0983 11.9712 10.2187C11.8908 10.3391 11.8479 10.4807 11.8479 10.6254ZM14.2915 10.5534C14.2891 10.5774 14.288 10.6015 14.288 10.6256C14.288 10.6496 14.2891 10.6735 14.2915 10.6974C14.2939 10.7213 14.2978 10.7452 14.3022 10.7687C14.3066 10.7921 14.3129 10.815 14.3198 10.838C14.3267 10.8609 14.3348 10.8833 14.3442 10.9053C14.353 10.9273 14.3637 10.9493 14.3744 10.9703C14.3974 11.0124 14.424 11.0524 14.454 11.0898C14.4691 11.1084 14.4857 11.1265 14.5023 11.143C14.5194 11.1601 14.5373 11.1762 14.556 11.1914C14.5744 11.2068 14.5936 11.2211 14.6136 11.2343C14.6336 11.2473 14.6541 11.2595 14.6751 11.2709C14.6961 11.2822 14.7181 11.2924 14.7401 11.3017C14.762 11.311 14.785 11.3188 14.8074 11.3256C14.8304 11.3327 14.8537 11.3385 14.8772 11.3432C14.9479 11.3575 15.0203 11.3612 15.092 11.3539C15.1159 11.3516 15.1397 11.348 15.1633 11.3432C15.1867 11.3386 15.2098 11.3327 15.2326 11.3256C15.2555 11.3188 15.2785 11.3105 15.3004 11.3017C15.3224 11.2929 15.3439 11.2822 15.3649 11.2709C15.3861 11.2598 15.4068 11.2476 15.4269 11.2343C15.4464 11.2211 15.4659 11.2065 15.4845 11.1914C15.5031 11.1763 15.5209 11.1602 15.5377 11.143C15.5547 11.1265 15.5709 11.1084 15.5865 11.0898C15.6011 11.0713 15.6158 11.0518 15.6289 11.0318C15.6422 11.0119 15.6544 10.9914 15.6655 10.9703C15.6768 10.9493 15.687 10.9273 15.6963 10.9053C15.7055 10.8833 15.7135 10.8608 15.7202 10.838C15.7275 10.8152 15.7334 10.7921 15.7378 10.7687C15.7428 10.7451 15.7464 10.7213 15.7485 10.6974C15.751 10.6736 15.7524 10.6496 15.7524 10.6256C15.7524 10.6015 15.751 10.5774 15.7485 10.5534C15.7464 10.5296 15.7428 10.506 15.7378 10.4826C15.7334 10.459 15.7275 10.4357 15.7202 10.4128C15.7134 10.39 15.7054 10.3675 15.6963 10.3454C15.687 10.3235 15.6768 10.3015 15.6655 10.2805C15.6543 10.2595 15.6421 10.239 15.6289 10.219C15.6158 10.199 15.6011 10.1795 15.5865 10.1614C15.5709 10.1424 15.5547 10.1248 15.5377 10.1077C15.5209 10.0906 15.5031 10.0745 15.4845 10.0594C15.4659 10.0443 15.4464 10.0301 15.4269 10.0169C15.4068 10.0035 15.3861 9.99115 15.3649 9.97984C15.344 9.96857 15.3224 9.95847 15.3004 9.94957C15.2783 9.94021 15.2556 9.93206 15.2326 9.92517C15.2101 9.91833 15.1867 9.91248 15.1633 9.90759C15.1162 9.89802 15.0683 9.89328 15.0202 9.89344C14.9961 9.89336 14.972 9.8945 14.948 9.89686C14.9242 9.89924 14.9006 9.90282 14.8772 9.90759C14.8538 9.91248 14.8304 9.91833 14.8074 9.92517C14.7846 9.93214 14.7621 9.94029 14.7401 9.94957C14.7179 9.95846 14.6962 9.96857 14.6751 9.97984C14.6541 9.99107 14.6336 10.0038 14.6136 10.0169C14.5936 10.03 14.5744 10.0442 14.556 10.0594C14.5373 10.0746 14.5194 10.0907 14.5023 10.1077C14.4857 10.1248 14.4691 10.1424 14.454 10.1614C14.4388 10.1798 14.4246 10.199 14.4115 10.219C14.3984 10.239 14.3857 10.2595 14.3744 10.2805C14.3632 10.3015 14.353 10.3235 14.3442 10.3454C14.3349 10.3675 14.3268 10.3899 14.3198 10.4128C14.3129 10.4358 14.3071 10.4592 14.3022 10.4826C14.2973 10.506 14.2939 10.53 14.2915 10.5534Z" fill="#296968"/>
</svg>
