<svg width="15" height="17" viewBox="0 0 15 17" fill="none" xmlns="http://www.w3.org/2000/svg">
<path d="M11.7474 6.16665V4.49998C11.7474 3.39491 11.3084 2.3351 10.527 1.5537C9.74561 0.7723 8.6858 0.333313 7.58073 0.333313C6.47566 0.333313 5.41585 0.7723 4.63445 1.5537C3.85305 2.3351 3.41406 3.39491 3.41406 4.49998V6.16665C2.75102 6.16665 2.11514 6.43004 1.6463 6.89888C1.17745 7.36772 0.914063 8.0036 0.914062 8.66665V14.5C0.914062 15.163 1.17745 15.7989 1.6463 16.2677C2.11514 16.7366 2.75102 17 3.41406 17H11.7474C12.4104 17 13.0463 16.7366 13.5152 16.2677C13.984 15.7989 14.2474 15.163 14.2474 14.5V8.66665C14.2474 8.0036 13.984 7.36772 13.5152 6.89888C13.0463 6.43004 12.4104 6.16665 11.7474 6.16665ZM5.08073 4.49998C5.08073 3.83694 5.34412 3.20105 5.81296 2.73221C6.2818 2.26337 6.91769 1.99998 7.58073 1.99998C8.24377 1.99998 8.87966 2.26337 9.3485 2.73221C9.81734 3.20105 10.0807 3.83694 10.0807 4.49998V6.16665H5.08073V4.49998ZM12.5807 14.5C12.5807 14.721 12.4929 14.933 12.3367 15.0892C12.1804 15.2455 11.9684 15.3333 11.7474 15.3333H3.41406C3.19305 15.3333 2.98109 15.2455 2.82481 15.0892C2.66853 14.933 2.58073 14.721 2.58073 14.5V8.66665C2.58073 8.44563 2.66853 8.23367 2.82481 8.07739C2.98109 7.92111 3.19305 7.83331 3.41406 7.83331H11.7474C11.9684 7.83331 12.1804 7.92111 12.3367 8.07739C12.4929 8.23367 12.5807 8.44563 12.5807 8.66665V14.5Z" fill="#296968"/>
</svg>
