<svg width="21" height="20" viewBox="0 0 21 20" fill="none" xmlns="http://www.w3.org/2000/svg">
<path fill-rule="evenodd" clip-rule="evenodd" d="M10.5801 0C11.1937 0 11.6912 0.447195 11.6912 0.998828V10.9871C11.6912 11.5388 11.1937 11.9859 10.5801 11.9859C9.96641 11.9859 9.46897 11.5388 9.46897 10.9871V0.998828C9.46897 0.447195 9.96641 0 10.5801 0ZM7.09742 3.56535C7.40469 4.04284 7.22318 4.65386 6.692 4.93007C4.36431 6.1405 2.8023 8.40044 2.8023 10.9871C2.8023 14.8486 6.28453 17.9789 10.5801 17.9789C14.8756 17.9789 18.3579 14.8486 18.3579 10.9871C18.3579 8.40044 16.7959 6.1405 14.4682 4.93007C13.937 4.65386 13.7555 4.04284 14.0627 3.56535C14.37 3.08785 15.0497 2.92468 15.5809 3.20089C18.567 4.7537 20.5801 7.65848 20.5801 10.9871C20.5801 15.9519 16.103 19.9766 10.5801 19.9766C5.05723 19.9766 0.580078 15.9519 0.580078 10.9871C0.580078 7.65848 2.59317 4.7537 5.57927 3.20089C6.11045 2.92468 6.79015 3.08785 7.09742 3.56535Z" fill="#CB0000"/>
</svg>
