<svg width="18" height="20" viewBox="0 0 18 20" fill="none" xmlns="http://www.w3.org/2000/svg">
<path d="M14.5325 10.1394C14.4611 10.0664 14.3759 10.0084 14.2819 9.96867C14.1878 9.92896 14.0868 9.90836 13.9847 9.90808C13.8826 9.90781 13.7815 9.92785 13.6873 9.96705C13.593 10.0062 13.5075 10.0638 13.4357 10.1364C13.3639 10.209 13.3073 10.2951 13.2691 10.3898C13.231 10.4845 13.2121 10.5858 13.2135 10.6879C13.2149 10.79 13.2366 10.8907 13.2773 10.9843C13.3181 11.0779 13.377 11.1625 13.4508 11.2331C14.1034 11.8753 14.6212 12.6413 14.9737 13.4863C15.3263 14.3313 15.5065 15.2382 15.5038 16.1538C15.5038 17.0947 12.8069 18.4615 8.58071 18.4615C4.35448 18.4615 1.65764 17.094 1.65764 16.1523C1.65505 15.243 1.83285 14.3422 2.18074 13.5021C2.52864 12.662 3.03972 11.8992 3.68441 11.2579C3.75732 11.1868 3.8154 11.102 3.85526 11.0083C3.89513 10.9145 3.91599 10.8138 3.91663 10.712C3.91728 10.6102 3.89769 10.5092 3.85902 10.415C3.82035 10.3208 3.76335 10.2352 3.69134 10.1632C3.61933 10.0912 3.53374 10.0342 3.43953 9.99554C3.34533 9.95686 3.24438 9.93728 3.14254 9.93793C3.04071 9.93857 2.94001 9.95943 2.8463 9.99929C2.75259 10.0392 2.66773 10.0972 2.59664 10.1701C1.8085 10.9541 1.18372 11.8867 0.758456 12.9138C0.333196 13.9409 0.115909 15.0422 0.119177 16.1538C0.119177 18.652 4.47841 20 8.58071 20C12.683 20 17.0423 18.652 17.0423 16.1538C17.0457 15.0347 16.8254 13.9261 16.3944 12.8933C15.9634 11.8605 15.3304 10.9241 14.5325 10.1394Z" fill="#296968"/>
<path d="M8.14633 10.7692C9.21131 10.7692 10.2524 10.4534 11.1379 9.86176C12.0234 9.27009 12.7135 8.42913 13.1211 7.44522C13.5286 6.46131 13.6353 5.37864 13.4275 4.33413C13.2197 3.28962 12.7069 2.33017 11.9538 1.57712C11.2008 0.824068 10.2413 0.311233 9.19682 0.103466C8.15231 -0.1043 7.06964 0.00233306 6.08573 0.409882C5.10182 0.81743 4.26086 1.50759 3.66919 2.39309C3.07752 3.27858 2.76172 4.31964 2.76172 5.38462C2.76337 6.8122 3.3312 8.18084 4.34066 9.19029C5.35011 10.1997 6.71875 10.7676 8.14633 10.7692ZM8.14633 1.53846C8.90703 1.53846 9.65064 1.76404 10.2831 2.18666C10.9156 2.60928 11.4086 3.20996 11.6997 3.91276C11.9908 4.61555 12.067 5.38888 11.9186 6.13496C11.7702 6.88104 11.4039 7.56636 10.866 8.10426C10.3281 8.64215 9.64276 9.00846 8.89668 9.15687C8.1506 9.30527 7.37727 9.2291 6.67447 8.938C5.97168 8.64689 5.37099 8.15392 4.94837 7.52142C4.52575 6.88893 4.30018 6.14531 4.30018 5.38462C4.30138 4.36492 4.70698 3.38734 5.42802 2.6663C6.14905 1.94527 7.12664 1.53966 8.14633 1.53846Z" fill="#296968"/>
</svg>
