<svg width="24" height="25" viewBox="0 0 24 25" fill="none" xmlns="http://www.w3.org/2000/svg">
<path d="M4 6.72998L10.1076 11.3422L10.1097 11.3439C10.7878 11.8413 11.1271 12.0901 11.4988 12.1862C11.8272 12.2712 12.1725 12.2712 12.501 12.1862C12.8729 12.09 13.2132 11.8405 13.8926 11.3422C13.8926 11.3422 17.8101 8.33592 20 6.72998M3 16.5302V8.93018C3 7.81007 3 7.2496 3.21799 6.82178C3.40973 6.44545 3.71547 6.13971 4.0918 5.94797C4.51962 5.72998 5.08009 5.72998 6.2002 5.72998H17.8002C18.9203 5.72998 19.4796 5.72998 19.9074 5.94797C20.2837 6.13971 20.5905 6.44545 20.7822 6.82178C21 7.24918 21 7.80897 21 8.92689V16.5336C21 17.6515 21 18.2105 20.7822 18.6379C20.5905 19.0142 20.2837 19.3205 19.9074 19.5122C19.48 19.73 18.921 19.73 17.8031 19.73H6.19691C5.07899 19.73 4.5192 19.73 4.0918 19.5122C3.71547 19.3205 3.40973 19.0142 3.21799 18.6379C3 18.21 3 17.6503 3 16.5302Z" stroke="#AEAEAE" stroke-width="2" stroke-linecap="round" stroke-linejoin="round"/>
</svg>
