<svg width="27" height="26" viewBox="0 0 27 26" fill="none" xmlns="http://www.w3.org/2000/svg">
<path d="M8.5445 18.2021C8.72011 17.6947 9.04578 17.2552 9.47661 16.9444C9.90744 16.6336 10.4222 16.4667 10.95 16.4667C11.4778 16.4667 11.9926 16.6336 12.4234 16.9444C12.8542 17.2552 13.1799 17.6947 13.3555 18.2021H22V19.9355H13.3555C13.1799 20.4429 12.8542 20.8824 12.4234 21.1932C11.9926 21.504 11.4778 21.6709 10.95 21.6709C10.4222 21.6709 9.90744 21.504 9.47661 21.1932C9.04578 20.8824 8.72011 20.4429 8.5445 19.9355H5V18.2021H8.5445ZM13.6445 12.1355C13.8201 11.628 14.1458 11.1886 14.5766 10.8778C15.0074 10.5669 15.5222 10.4 16.05 10.4C16.5778 10.4 17.0926 10.5669 17.5234 10.8778C17.9542 11.1886 18.2799 11.628 18.4555 12.1355H22V13.8688H18.4555C18.2799 14.3763 17.9542 14.8157 17.5234 15.1265C17.0926 15.4373 16.5778 15.6043 16.05 15.6043C15.5222 15.6043 15.0074 15.4373 14.5766 15.1265C14.1458 14.8157 13.8201 14.3763 13.6445 13.8688H5V12.1355H13.6445ZM8.5445 6.0688C8.72011 5.56134 9.04578 5.12191 9.47661 4.81108C9.90744 4.50026 10.4222 4.33334 10.95 4.33334C11.4778 4.33334 11.9926 4.50026 12.4234 4.81108C12.8542 5.12191 13.1799 5.56134 13.3555 6.0688H22V7.80213H13.3555C13.1799 8.3096 12.8542 8.74902 12.4234 9.05985C11.9926 9.37067 11.4778 9.53759 10.95 9.53759C10.4222 9.53759 9.90744 9.37067 9.47661 9.05985C9.04578 8.74902 8.72011 8.3096 8.5445 7.80213H5V6.0688H8.5445ZM10.95 7.80213C11.1754 7.80213 11.3916 7.71082 11.551 7.54829C11.7104 7.38576 11.8 7.16532 11.8 6.93547C11.8 6.70561 11.7104 6.48517 11.551 6.32264C11.3916 6.16011 11.1754 6.0688 10.95 6.0688C10.7246 6.0688 10.5084 6.16011 10.349 6.32264C10.1896 6.48517 10.1 6.70561 10.1 6.93547C10.1 7.16532 10.1896 7.38576 10.349 7.54829C10.5084 7.71082 10.7246 7.80213 10.95 7.80213ZM16.05 13.8688C16.2754 13.8688 16.4916 13.7775 16.651 13.615C16.8104 13.4524 16.9 13.232 16.9 13.0021C16.9 12.7723 16.8104 12.5518 16.651 12.3893C16.4916 12.2268 16.2754 12.1355 16.05 12.1355C15.8246 12.1355 15.6084 12.2268 15.449 12.3893C15.2896 12.5518 15.2 12.7723 15.2 13.0021C15.2 13.232 15.2896 13.4524 15.449 13.615C15.6084 13.7775 15.8246 13.8688 16.05 13.8688ZM10.95 19.9355C11.1754 19.9355 11.3916 19.8442 11.551 19.6816C11.7104 19.5191 11.8 19.2987 11.8 19.0688C11.8 18.8389 11.7104 18.6185 11.551 18.456C11.3916 18.2934 11.1754 18.2021 10.95 18.2021C10.7246 18.2021 10.5084 18.2934 10.349 18.456C10.1896 18.6185 10.1 18.8389 10.1 19.0688C10.1 19.2987 10.1896 19.5191 10.349 19.6816C10.5084 19.8442 10.7246 19.9355 10.95 19.9355Z" fill="white"/>
</svg>
