<svg width="17" height="17" viewBox="0 0 17 17" fill="none" xmlns="http://www.w3.org/2000/svg">
<path fill-rule="evenodd" clip-rule="evenodd" d="M2.46807 0.75H15.11C16.0373 0.75 16.7891 1.50172 16.7891 2.42901V15.071C16.7891 15.9983 16.0373 16.75 15.11 16.75H2.46808C1.54078 16.75 0.789062 15.9983 0.789062 15.071V2.42901C0.789062 1.50172 1.54078 0.75 2.46807 0.75ZM2.46807 1.83642C2.14079 1.83642 1.87548 2.10173 1.87548 2.42901V11.9565L4.22841 9.60355C4.8142 9.01777 5.76394 9.01777 6.34973 9.60356L7.43552 10.6893C7.63078 10.8846 7.94736 10.8846 8.14262 10.6893L11.7284 7.10355C12.3142 6.51777 13.2639 6.51777 13.8497 7.10356L15.7026 8.95647V2.42901C15.7026 2.10173 15.4373 1.83642 15.11 1.83642H2.46807ZM1.87548 15.071V13.3707L4.93552 10.3107C5.13078 10.1154 5.44736 10.1154 5.64262 10.3107L6.72841 11.3964C7.3142 11.9822 8.26394 11.9822 8.84973 11.3964L12.4355 7.81066C12.6308 7.6154 12.9474 7.6154 13.1426 7.81066L15.7026 10.3707V15.071C15.7026 15.3983 15.4373 15.6636 15.11 15.6636H2.46808C2.1408 15.6636 1.87548 15.3983 1.87548 15.071ZM6.78906 5.75C6.78906 6.30228 6.34135 6.75 5.78906 6.75C5.23678 6.75 4.78906 6.30228 4.78906 5.75C4.78906 5.19772 5.23678 4.75 5.78906 4.75C6.34135 4.75 6.78906 5.19772 6.78906 5.75ZM7.78906 5.75C7.78906 6.85457 6.89363 7.75 5.78906 7.75C4.68449 7.75 3.78906 6.85457 3.78906 5.75C3.78906 4.64543 4.68449 3.75 5.78906 3.75C6.89363 3.75 7.78906 4.64543 7.78906 5.75Z" fill="#296968"/>
</svg>
