<svg width="16" height="16" viewBox="0 0 16 16" fill="none" xmlns="http://www.w3.org/2000/svg">
<path d="M15.9562 8.18765C15.9562 7.64553 15.9114 7.10047 15.8157 6.56714H8.13867V9.6382H12.5349C12.3525 10.6287 11.7663 11.5049 10.908 12.0616V14.0543H13.5308C15.071 12.6653 15.9562 10.614 15.9562 8.18765Z" fill="#4285F4"/>
<path d="M8.14046 15.9796C10.3356 15.9796 12.1868 15.2734 13.5356 14.0543L10.9128 12.0617C10.1831 12.5481 9.24102 12.8236 8.14345 12.8236C6.02008 12.8236 4.21971 11.4199 3.57373 9.53271H0.867188V11.5869C2.24887 14.28 5.06308 15.9796 8.14046 15.9796Z" fill="#193E64"/>
<path d="M3.56935 9.53262C3.22841 8.54214 3.22841 7.46962 3.56935 6.47914V4.42493H0.865794C-0.288598 6.67841 -0.288598 9.33335 0.865794 11.5868L3.56935 9.53262Z" fill="#FBBC04"/>
<path d="M8.14046 3.18539C9.30083 3.16781 10.4223 3.59565 11.2627 4.38099L13.5864 2.10407C12.115 0.750225 10.1621 0.0059028 8.14046 0.029346C5.06308 0.029346 2.24887 1.72898 0.867188 4.42495L3.57074 6.47916C4.21373 4.58905 6.01709 3.18539 8.14046 3.18539Z" fill="#EA4335"/>
</svg>
