<svg width="40" height="40" viewBox="0 0 40 40" fill="none" xmlns="http://www.w3.org/2000/svg">
<path d="M19.9477 0.297853C17.3653 0.296949 14.808 0.804918 12.4221 1.79273C10.0361 2.78054 7.86817 4.22884 6.04216 6.05485C4.21614 7.88086 2.76785 10.0488 1.78004 12.4348C0.792223 14.8207 0.284254 17.378 0.285157 19.9604C0.284254 22.5427 0.792223 25.1 1.78004 27.4859C2.76785 29.8719 4.21614 32.0398 6.04216 33.8659C7.86817 35.6919 10.0361 37.1402 12.4221 38.128C14.808 39.1158 17.3653 39.6238 19.9477 39.6229C22.53 39.6238 25.0873 39.1158 27.4732 38.128C29.8592 37.1402 32.0271 35.6919 33.8532 33.8659C35.6792 32.0398 37.1275 29.8719 38.1153 27.4859C39.1031 25.1 39.6111 22.5427 39.6102 19.9604C39.6111 17.378 39.1031 14.8207 38.1153 12.4348C37.1275 10.0488 35.6792 7.88086 33.8532 6.05485C32.0271 4.22884 29.8592 2.78054 27.4732 1.79273C25.0873 0.804918 22.53 0.296949 19.9477 0.297853ZM19.9477 34.1229C19.3597 34.1242 18.7845 33.951 18.295 33.6252C17.8056 33.2994 17.4238 32.8356 17.1982 32.2926C16.9725 31.7496 16.9131 31.1519 17.0275 30.5751C17.1419 29.9984 17.4249 29.4685 17.8407 29.0528C18.2565 28.637 18.7863 28.354 19.3631 28.2396C19.9398 28.1252 20.5376 28.1846 21.0805 28.4103C21.6235 28.6359 22.0873 29.0176 22.4131 29.5071C22.7389 29.9966 22.9121 30.5717 22.9108 31.1597C22.909 31.945 22.5962 32.6977 22.0409 33.253C21.4856 33.8083 20.733 34.121 19.9477 34.1229ZM23.5433 9.64785L22.4227 24.7729C22.4157 24.8774 22.3691 24.9754 22.2925 25.0469C22.2159 25.1184 22.115 25.1581 22.0102 25.1579H17.8852C17.7804 25.1581 17.6794 25.1184 17.6028 25.0469C17.5262 24.9754 17.4796 24.8774 17.4727 24.7729L16.352 9.64785C16.3217 9.15697 16.3921 8.66506 16.5591 8.20244C16.726 7.73983 16.986 7.3163 17.3228 6.95795C17.6597 6.5996 18.0664 6.31402 18.5178 6.11881C18.9692 5.9236 19.4558 5.8229 19.9477 5.8229C20.4395 5.8229 20.9261 5.9236 21.3775 6.11881C21.8289 6.31402 22.2356 6.5996 22.5725 6.95795C22.9093 7.3163 23.1693 7.73983 23.3362 8.20244C23.5032 8.66506 23.5737 9.15697 23.5433 9.64785Z" fill="#FFC048"/>
</svg>
