<svg width="24" height="25" viewBox="0 0 24 25" fill="none" xmlns="http://www.w3.org/2000/svg">
<g clip-path="url(#clip0_341_736)">
<path d="M4.49371 8.6895C5.93339 14.3447 10.3853 18.7966 16.0405 20.2363C18.1813 20.7813 20 18.9391 20 16.73V15.73C20 15.1777 19.5512 14.7352 19.0016 14.6808C18.073 14.5887 17.1818 14.3697 16.3456 14.0412L14.8263 15.5605C12.3553 14.378 10.352 12.3747 9.16949 9.90365L10.6888 8.38437C10.3603 7.54814 10.1413 6.65694 10.0492 5.7284C9.99474 5.17881 9.55229 4.72998 9 4.72998H8C5.79086 4.72998 3.94869 6.54865 4.49371 8.6895Z" stroke="#AEAEAE" stroke-width="2" stroke-linecap="round" stroke-linejoin="round"/>
</g>
<defs>
<clipPath id="clip0_341_736">
<rect width="24" height="24" fill="white" transform="matrix(-1 0 0 1 24 0.72998)"/>
</clipPath>
</defs>
</svg>
