<svg width="24" height="15" viewBox="0 0 24 15" fill="none" xmlns="http://www.w3.org/2000/svg">
<path d="M22.5805 11.0748L4.46731 11.0748L5.96996 12.5774C6.18165 12.7966 6.29879 13.0902 6.29614 13.3949C6.29349 13.6996 6.17127 13.9911 5.9558 14.2065C5.74033 14.422 5.44885 14.5442 5.14414 14.5469C4.83943 14.5495 4.54587 14.4324 4.32669 14.2207L0.84026 10.7343C0.677782 10.5717 0.567138 10.3647 0.522317 10.1393C0.477496 9.91388 0.50051 9.68026 0.58845 9.46793C0.676389 9.25561 0.825305 9.07412 1.01637 8.94642C1.20744 8.81872 1.43208 8.75054 1.6619 8.75049L22.5805 8.75049C22.8887 8.75049 23.1843 8.87293 23.4022 9.09087C23.6202 9.30882 23.7426 9.60441 23.7426 9.91263C23.7426 10.2208 23.6202 10.5164 23.4022 10.7344C23.1843 10.9523 22.8887 11.0748 22.5805 11.0748Z" fill="#1E1E1E"/>
<path d="M23.4209 4.44254C23.584 4.60562 23.6948 4.81353 23.7394 5.0398C23.7839 5.26608 23.7601 5.50048 23.671 5.71319C23.5819 5.9259 23.4315 6.10729 23.239 6.23428C23.0465 6.36127 22.8206 6.42812 22.59 6.42632L22.5807 6.42632L1.66214 6.42632C1.35392 6.42632 1.05833 6.30388 0.840384 6.08593C0.62244 5.86799 0.5 5.57239 0.5 5.26417C0.5 4.95595 0.62244 4.66036 0.840384 4.44242C1.05833 4.22447 1.35392 4.10203 1.66214 4.10203L19.7916 4.10203L18.2912 2.59938C18.0795 2.3802 17.9624 2.08664 17.9651 1.78193C17.9677 1.47722 18.0899 1.18574 18.3054 0.970266C18.5209 0.754795 18.8123 0.632573 19.1171 0.629925C19.4218 0.627278 19.7153 0.744415 19.9345 0.956109L23.4209 4.44254Z" fill="#1E1E1E"/>
</svg>
