<svg width="22" height="18" viewBox="0 0 22 18" fill="none" xmlns="http://www.w3.org/2000/svg">
<path d="M15.5159 11H14.5648L14.2277 10.73C15.4076 9.59 16.1179 8.11 16.1179 6.5C16.1179 2.91 12.6145 0 8.29235 0C3.97024 0 0.466797 2.91 0.466797 6.5C0.466797 10.09 3.97024 13 8.29235 13C10.2307 13 12.0125 12.41 13.385 11.43L13.71 11.71V12.5L19.7297 17.49L21.5236 16L15.5159 11ZM8.29235 11C5.29456 11 2.87466 8.99 2.87466 6.5C2.87466 4.01 5.29456 2 8.29235 2C11.2901 2 13.71 4.01 13.71 6.5C13.71 8.99 11.2901 11 8.29235 11Z" fill="#D0D0DD"/>
</svg>
