<svg width="23" height="22" viewBox="0 0 23 22" fill="none" xmlns="http://www.w3.org/2000/svg">
<g clip-path="url(#clip0_364_659)">
<path fill-rule="evenodd" clip-rule="evenodd" d="M11.5 0C5.43281 0 0.5 4.93281 0.5 11C0.5 17.0672 5.43281 22 11.5 22C17.5672 22 22.5 17.0672 22.5 11C22.5 4.93281 17.5672 0 11.5 0Z" fill="#296968"/>
<path d="M9.38164 16.0317C7.97656 14.6266 6.58008 13.2086 5.1707 11.8036C5.01602 11.6489 5.01602 11.3911 5.1707 11.2364L6.79062 9.61646C6.94531 9.46177 7.20313 9.46177 7.35781 9.61646L9.67383 11.9325L15.6293 5.97271C15.7883 5.81802 16.0418 5.81802 16.2008 5.97271L17.825 7.59692C17.984 7.75591 17.984 8.00942 17.825 8.16411L9.94883 16.0317C9.79414 16.1907 9.54063 16.1907 9.38164 16.0317Z" fill="white"/>
</g>
<defs>
<clipPath id="clip0_364_659">
<rect width="22" height="22" fill="white" transform="translate(0.5)"/>
</clipPath>
</defs>
</svg>
