<svg width="18" height="18" viewBox="0 0 18 18" fill="none" xmlns="http://www.w3.org/2000/svg">
<mask id="mask0_383_1120" style="mask-type:alpha" maskUnits="userSpaceOnUse" x="0" y="0" width="18" height="18">
<rect width="18" height="18" fill="#D9D9D9"/>
</mask>
<g mask="url(#mask0_383_1120)">
<path d="M8.99928 13.7062L5.88678 15.5812C5.74928 15.6687 5.60553 15.7062 5.45553 15.6937C5.30553 15.6812 5.17428 15.6312 5.06178 15.5437C4.94928 15.4562 4.86178 15.3468 4.79928 15.2155C4.73678 15.0843 4.72428 14.9374 4.76178 14.7749L5.58678 11.2312L2.83053 8.8499C2.70553 8.7374 2.6274 8.60928 2.59615 8.46553C2.5649 8.32178 2.57428 8.18115 2.62428 8.04365C2.67428 7.90615 2.74928 7.79365 2.84928 7.70615C2.94928 7.61865 3.08678 7.5624 3.26178 7.5374L6.89928 7.21865L8.30553 3.88115C8.36803 3.73115 8.4649 3.61865 8.59615 3.54365C8.7274 3.46865 8.86178 3.43115 8.99928 3.43115C9.13678 3.43115 9.27115 3.46865 9.4024 3.54365C9.53365 3.61865 9.63053 3.73115 9.69303 3.88115L11.0993 7.21865L14.7368 7.5374C14.9118 7.5624 15.0493 7.61865 15.1493 7.70615C15.2493 7.79365 15.3243 7.90615 15.3743 8.04365C15.4243 8.18115 15.4337 8.32178 15.4024 8.46553C15.3712 8.60928 15.293 8.7374 15.168 8.8499L12.4118 11.2312L13.2368 14.7749C13.2743 14.9374 13.2618 15.0843 13.1993 15.2155C13.1368 15.3468 13.0493 15.4562 12.9368 15.5437C12.8243 15.6312 12.693 15.6812 12.543 15.6937C12.393 15.7062 12.2493 15.6687 12.1118 15.5812L8.99928 13.7062Z" fill="#FBBC05"/>
</g>
</svg>
